<svg version="1.1" xmlns="http://www.w3.org/2000/svg" xmlns:xlink="http://www.w3.org/1999/xlink" width="1260" height="1260" viewBox="0,0,1260,1260">
  <path
     d="M280.51327,952.76183 C105.04655,925.31149 -12.946027,775.91082 18.453918,620.94572 36.873995,530.03891 100.42408,448.00186 184.28998,406.8673 c49.22094,-24.14189 78.72007,-31.45794 127.20575,-31.54815 113.47212,-0.21114 228.68578,67.56468 303.13559,178.32313 5.70975,8.49435 11.68305,16.32582 13.27406,17.40328 1.59096,1.07745 14.45446,-13.92447 28.58548,-33.33761 14.13102,-19.41313 42.72763,-52.18436 63.54797,-72.82494 62.56827,-62.02799 123.3867,-86.39929 214.33825,-85.89005 149.58472,0.83751 271.36252,93.14998 301.48312,228.53644 31.2301,140.37339 -72.2514,302.03208 -216.9554,338.92729 -53.19022,13.56195 -146.58634,6.01948 -201.43474,-16.26742 -54.80741,-22.27025 -126.8811,-81.27667 -168.72942,-138.1381 -10.50552,-14.27436 -20.35224,-25.95339 -21.88162,-25.95339 -1.52938,0 -12.189,12.61335 -23.68805,28.02966 -24.63338,33.02496 -73.79828,82.35497 -102.8799,103.22531 -29.23116,20.97769 -71.16254,41.49557 -100.15665,49.00868 -32.10109,8.31825 -88.18168,11.31888 -119.62115,6.4004z M409.90634,838.81606 c26.12073,-12.8674 40.45286,-24.06792 74.00382,-57.83386 23.09752,-23.24551 51.63994,-57.3244 64.15528,-76.5997 l 22.5459,-34.72375 -12.24846,-22.6904 C538.11882,609.46618 495.12726,555.43931 468.17638,533.63234 435.09109,506.86178 403.79868,490.47046 365.5327,479.86642 292.28762,459.56917 229.54456,477.50174 172.0024,535.17925 61.666878,645.7743 107.61047,803.41062 263.74149,849.94372 c18.84987,5.61801 35.73073,7.10981 69.34282,6.12799 41.88752,-1.22351 46.27964,-2.21007 76.82203,-17.25565z m582.13021,14.23642 c30.45105,-7.02025 62.81285,-25.42793 87.58675,-49.82009 72.5368,-71.41934 84.5033,-171.61689 29.2745,-245.11956 -59.005,-78.52825 -180.02524,-105.83272 -273.11897,-61.62084 -27.70431,13.15727 -80.50057,68.00589 -116.36466,120.88817 -16.5522,24.40659 -31.16433,47.1624 -32.47139,50.56848 -3.90214,10.16882 38.24654,68.27015 78.88751,108.74532 57.17926,56.94596 108.02,79.77045 178.92815,80.3281 15.98729,0.12582 37.26242,-1.66056 47.27811,-3.96958z"/>
  <path
     d="m303.19064,728.7249 v-29.0678 h-31.14406 -31.14407 v-24.73333 -24.73333 l 30.10593,-1.22006 30.10593,-1.22006 1.22787,-28.02966 1.22786,-28.02966 h24.72553 24.72552 v29.0678 29.06779 h26.99153 26.99152 v24.91526 24.91525 h-26.99152 -26.99153 v29.0678 29.0678 H328.1059 303.19064Z"/>
  <path
     d="m834.71607,674.74185 v-20.76271 h101.73729 101.73724 v20.76271 20.76271 H936.45336 834.71607Z"/>
</svg>