<svg version="1.1" xmlns="http://www.w3.org/2000/svg" xmlns:xlink="http://www.w3.org/1999/xlink" width="1260" height="1260" viewBox="0,0,1260,1260"><g transform="translate(0,300)"><path d="M182.656,0.189 C147.697,9.037,121.113,41.984,104.843,90.819 C102.63,97.46,101.563,137.514,100.686,246.858 C100.686,246.858,99.505,393.963,99.505,393.963 C99.505,393.963,78.405,393.385,78.405,393.385 C59,392.853,56.132,393.553,42.72,402.081 C27.277,411.9,12.687,430.265,5.428,449.022 C-1.402,466.67,-1.876,509.16,4.515,530.815 C10.817,552.165,26.707,573.014,44.387,583.128 C55.116,589.267,60.934,590.516,78.733,590.502 C78.733,590.502,100.163,590.49,100.163,590.49 C100.163,590.49,101.336,631.032,101.336,631.032 C102.495,671.094,104.085,680.546,113.417,702.843 C125.08,730.706,146.619,753.886,172.183,766.086 C185.361,772.374,190.846,772.894,258.929,774.304 C258.929,774.304,331.607,775.81,331.607,775.81 C331.607,775.81,332.267,851.754,332.267,851.754 C332.629,893.523,332.376,930.553,331.706,934.043 C331.035,937.533,328.629,941.08,326.358,941.926 C324.087,942.771,306.932,950.417,288.235,958.917 C269.538,967.417,248.437,976.752,241.345,979.662 C231.63,983.648,228.266,986.522,227.702,991.319 C227.702,991.319,226.952,997.686,226.952,997.686 C226.952,997.686,500.32,997.686,500.32,997.686 C744.546,997.686,773.835,997.195,775.075,993.09 C775.839,990.563,775.947,987.838,775.316,987.036 C774.13,985.529,739.606,969.809,695.586,950.731 C695.586,950.731,670.383,939.809,670.383,939.809 C670.383,939.809,669.485,764.59,669.485,764.59 C669.485,764.59,732.73,766.884,732.73,766.884 C802.619,766.847,830.206,766.013,853.889,751.294 C868.891,741.971,883.093,728.238,891.653,708.258 C901.364,685.594,897.347,684.434,897.347,646.815 C897.347,646.815,897.347,581.04,897.347,581.04 C897.347,581.04,923.622,580.744,923.622,580.744 C947.556,580.075,953.847,578.19,970.92,568.447 C981.8,553.936,996.464,538.582,999.647,512.38 C1000.644,485.303,999.898,470.326,992.525,446.343 C983.134,428.121,985.754,426.859,971.411,412.565 C958.16,403.691,946.808,399.869,920.833,398.68 C920.833,398.68,884.554,398.552,884.554,398.552 C884.554,398.552,884.93,251.858,884.93,251.858 C884.267,107.094,882.85,93.827,877.456,76.86 C866.06,41.011,841.683,20.198,812.483,4.997 C812.483,4.997,767.014,3.727,767.014,3.727 C767.014,3.727,491.71,0.331,491.71,0.331 C322.146,0.081,238.731,-1.215,233.068,0.219 C233.068,0.219,182.656,0.189,182.656,0.189Z M848.171,89.963 C849.922,93.722,856.106,108.797,854.456,128.525 C854.456,128.525,853.998,151.138,853.998,151.138 C853.998,151.138,852.753,298.549,852.753,298.549 C853.384,465.331,853.682,476.496,857.506,476.496 C862.801,476.496,870.069,470.085,886.708,450.736 C907.721,426.3,923.883,423.185,943.939,439.705 C962.026,454.604,971.791,484.655,965.905,507.309 C959.075,533.602,939.236,553.93,920.408,553.93 C908.759,553.93,897.274,546.068,879.518,525.943 C870.376,515.58,862.68,509.257,859.21,509.257 C859.21,509.257,853.624,509.257,853.624,509.257 C853.624,509.257,852.852,579.989,852.852,579.989 C852.127,646.361,854.096,624.893,852.953,653.026 C852.802,684.906,841.598,704.045,828.663,712.94 C828.663,712.94,794.227,715.455,794.227,715.455 C794.227,715.455,500.412,717.03,500.412,717.03 C500.412,717.03,195.633,717.818,195.633,717.818 C195.633,717.818,166.232,712.669,166.232,712.669 C150.96,703.118,147.378,689.052,146.59,665.13 C144.777,645.323,143.993,641.761,143.32,579.988 C142.713,524.287,141.814,506.278,139.639,506.278 C135.158,506.278,116.676,522.308,108.883,532.954 C99.52,545.743,86.454,553.944,75.567,553.864 C49.509,553.672,26.072,520.884,28.552,488.092 C30.659,460.233,45.025,438.43,65.893,431.42 C81.387,426.215,92.622,431.2,109.421,450.735 C126.073,470.099,133.328,476.496,138.64,476.496 C142.487,476.496,142.777,465.553,143.393,297.059 C143.393,297.059,144.05,117.622,144.05,117.622 C144.05,117.622,150.646,100.558,150.646,100.558 C157.443,82.975,164.602,55.312,187.945,43.353 C236.21,42.569,203.473,43.1,473.908,41.613 C633.157,40.737,770.816,42.544,779.198,43.185 C787.579,43.825,824.946,53.255,834.749,67.554 C834.749,67.554,848.171,89.963,848.171,89.963Z M570.053,95.22 C653.066,117.442,713.957,170.356,730.225,234.409 C730.225,234.409,734.168,249.937,734.168,249.937 C734.168,249.937,755.208,250.789,755.208,250.789 C755.208,250.789,776.248,251.641,776.248,251.641 C776.248,251.641,744.006,284.738,744.006,284.738 C744.006,284.738,711.763,317.835,711.763,317.835 C711.763,317.835,680.022,284.738,680.022,284.738 C680.022,284.738,648.281,251.641,648.281,251.641 C648.281,251.641,667.538,250.777,667.538,250.777 C686.332,249.932,686.794,249.733,686.794,242.468 C686.794,223.119,663.761,186.938,638.968,167.343 C618.429,151.109,598.586,140.645,571.239,131.626 C549.029,124.301,543.741,123.73,498.065,123.727 C454.906,123.727,446.274,124.542,428.106,130.36 C371.254,148.565,329.613,182.971,313.76,224.838 C310.039,234.666,306.993,244.33,306.992,246.314 C306.991,248.792,313.319,250.19,327.224,250.781 C327.224,250.781,347.457,251.642,347.457,251.642 C347.457,251.642,316.664,283.658,316.664,283.658 C299.728,301.266,284.857,315.673,283.617,315.673 C282.377,315.673,267.491,301.266,250.536,283.658 C250.536,283.658,219.711,251.642,219.711,251.642 C219.711,251.642,240.732,250.791,240.732,250.791 C240.732,250.791,261.753,249.941,261.753,249.941 C261.753,249.941,264.705,237.389,264.705,237.389 C280.986,168.158,352.174,108.828,438.396,92.63 C448.004,90.825,458.502,88.76,461.725,88.04 C476.953,84.643,548.177,89.363,570.053,95.219 C570.053,95.219,570.053,95.22,570.053,95.22Z M362.085,339.539 C304.667,350.683,262.445,414.6,262.445,490.377 C262.445,531.715,272.154,566.209,291.831,594.783 C326.968,645.807,390.017,660.942,438.207,629.922 C463.814,613.438,489.562,573.812,497.784,538.235 C497.784,538.235,500.695,525.637,500.695,525.637 C500.695,525.637,505.057,543.091,505.057,543.091 C514.193,579.644,537.28,613.202,565.237,630.567 C585.099,642.903,605.151,647.543,628.931,645.305 C661.126,642.275,684.074,628.521,706.276,598.946 C746.194,545.775,750.561,458.847,716.286,399.703 C692.544,358.733,659.9,338.45,617.633,338.404 C564.543,338.341,519.036,381.327,503.84,445.878 C503.84,445.878,500.882,458.444,500.882,458.444 C500.882,458.444,495.957,439.853,495.957,439.853 C481.964,387.038,444.785,347.4,401.941,339.619 C383.581,336.285,378.902,336.275,362.085,339.544 C362.085,339.544,362.085,339.539,362.085,339.539Z M413.656,403.395 C442.178,421.121,461.978,464.517,458.355,501.358 C455.094,534.505,437.346,566.048,413.603,580.89 C397.224,591.128,366.9,591.281,351.888,581.201 C337.025,571.221,321.507,551.863,314.602,534.691 C305.984,513.256,304.696,481.187,311.528,458.189 C327.284,405.156,375.159,379.469,413.656,403.395Z M343.13,477.224 C343.13,487.764,342.859,504.024,342.947,508.589 C348.589,508.501,417.384,508.012,422.539,507.937 C422.627,502.721,421.869,501.61,421.869,491.069 C421.869,491.069,421.869,476.496,421.869,476.496 C421.869,476.496,382.013,476.496,382.013,476.496 C382.013,476.496,343.13,477.224,343.13,477.224Z M648.03,401.689 C660.202,408.529,676.094,426.302,683.672,441.551 C691.648,457.602,696.95,486.22,695.048,502.964 C691.082,537.895,670.165,571.812,645.207,583.779 C601.654,604.662,551.448,566.209,543.987,506.252 C536.547,446.464,577.244,389.921,624.298,394.669 C631.833,395.43,642.512,398.588,648.03,401.689Z M606.161,439.512 C605.378,442.103,604.738,451.485,604.738,460.36 C604.738,460.36,604.738,476.496,604.738,476.496 C604.738,476.496,589.544,476.496,589.544,476.496 C575.076,476.496,582.746,476.873,574.336,477.139 C574.38,481.98,573.796,502.804,574.075,507.981 C578.986,508.123,576.78,507.844,590.132,508.654 C590.132,508.654,604.738,509.541,604.738,509.541 C604.738,509.541,604.738,526.904,604.738,526.904 C604.738,547.751,605.456,539.775,605.682,549.13 C605.682,549.13,632.953,548.902,632.953,548.902 C632.953,548.902,632.39,529.492,632.39,529.492 C632.39,529.492,633.081,509.522,633.081,509.522 C633.081,509.522,648.801,508.644,648.801,508.644 C648.801,508.644,664.522,507.766,664.522,507.766 C664.522,507.766,665.101,476.58,665.101,476.58 C665.101,476.58,649.71,476.863,649.71,476.863 C649.71,476.863,633.016,477.001,633.016,477.001 C633.016,477.001,632.872,470.402,632.872,470.402 C632.872,470.402,632.033,439.503,632.033,439.503 C622.667,439.503,627.547,439.222,619.831,439.221 C619.831,439.221,606.161,439.512,606.161,439.512Z"/></g></svg>