<?xml version="1.0" encoding="UTF-8" standalone="no"?>
<svg
   xmlns:dc="http://purl.org/dc/elements/1.1/"
   xmlns:cc="http://creativecommons.org/ns#"
   xmlns:rdf="http://www.w3.org/1999/02/22-rdf-syntax-ns#"
   xmlns:svg="http://www.w3.org/2000/svg"
   xmlns="http://www.w3.org/2000/svg"
   xmlns:sodipodi="http://sodipodi.sourceforge.net/DTD/sodipodi-0.dtd"
   xmlns:inkscape="http://www.inkscape.org/namespaces/inkscape"
   height="32"
   width="32"
   viewBox="0 0 80 80"
   version="1.1"
   id="svg4"
   sodipodi:docname="mbri-windows.svg"
   inkscape:version="0.92.4 (5da689c313, 2019-01-14)">
  <metadata
     id="metadata10">
    <rdf:RDF>
      <cc:Work
         rdf:about="">
        <dc:format>image/svg+xml</dc:format>
        <dc:type
           rdf:resource="http://purl.org/dc/dcmitype/StillImage" />
        <dc:title></dc:title>
      </cc:Work>
    </rdf:RDF>
  </metadata>
  <defs
     id="defs8" />
  <sodipodi:namedview
     pagecolor="#ffffff"
     bordercolor="#666666"
     borderopacity="1"
     objecttolerance="10"
     gridtolerance="10"
     guidetolerance="10"
     inkscape:pageopacity="0"
     inkscape:pageshadow="2"
     inkscape:window-width="1920"
     inkscape:window-height="1051"
     id="namedview6"
     showgrid="false"
     inkscape:zoom="18.88"
     inkscape:cx="25.250376"
     inkscape:cy="27.340658"
     inkscape:window-x="-9"
     inkscape:window-y="-9"
     inkscape:window-maximized="1"
     inkscape:current-layer="svg4" />
  <path
     style="opacity:1;fill:none;fill-opacity:1;stroke:#ff0000;stroke-width:0.08821406;stroke-miterlimit:4;stroke-dasharray:none;stroke-opacity:1"
     d="m 14.927461,79.781001 c -2.807382,-0.70728 -5.1571902,-3.34097 -6.463783,-7.24466 -0.1776886,-0.53088 -0.2633887,-3.73265 -0.3338682,-12.47334 l -0.094818,-11.75913 -1.6944839,0.0462 c -1.5583108,0.0425 -1.7886084,-0.0134 -2.8657345,-0.69512 -1.2401339,-0.78493 -2.4117754,-2.25297 -2.99473143,-3.75233 -0.548514,-1.41077 -0.586603,-4.8073 -0.07332,-6.53834 0.506053,-1.70666 1.78211703,-3.3732 3.20194073,-4.18175 0.8616379,-0.49068 1.3288714,-0.59053 2.758258,-0.58945 l 1.7208966,0.001 0.094195,-3.24079 c 0.093085,-3.2025 0.2207865,-3.95804 0.9702574,-5.7404 0.9365453,-2.2273 2.6663163,-4.08026 4.7192783,-5.05544 1.05822,-0.50266 1.498736,-0.5442 6.966211,-0.65695 l 5.836555,-0.12035 0.05296,-6.07077 c 0.02912,-3.3389196 0.0088,-6.2989996 -0.04501,-6.5779696 -0.05388,-0.27896 -0.247157,-0.5625 -0.429506,-0.63009 -0.182349,-0.0676 -1.560041,-0.67879 -3.061544,-1.35825 -1.501502,-0.67946 -3.195985,-1.42569 -3.76552,-1.65829 -0.78019,-0.31863 -1.050353,-0.54839995 -1.095682,-0.93184997 L 18.269852,0.0440014 h 21.953147 c 19.612928,0 21.965044,0.0392 22.064642,0.36737003 0.06133,0.20205 0.07,0.41983 0.01929,0.48395002 -0.09524,0.12042995 -2.867725,1.37706995 -6.402772,2.90207995 l -2.023967,0.87313 v 6.6143296 6.61432 l 5.22466,0.003 c 5.612459,0.003 6.328607,0.11546 8.2305,1.29206 1.204722,0.7453 2.873883,2.81165 3.561349,4.4088 0.779824,1.81172 1.057986,3.5306 1.057986,6.53775 v 2.69545 l 0.885337,-0.20914 c 2.586495,-0.61101 5.33931,1.13219 6.615488,4.1892 0.450427,1.07898 0.500853,1.45178 0.500438,3.69963 0,2.32463 -0.03956,2.58902 -0.558482,3.77468 -0.717571,1.6395 -1.931402,2.98131 -3.273017,3.61807 -0.843399,0.40031 -1.382981,0.48808 -2.609898,0.42456 l -1.546679,-0.0801 -0.05367,11.66539 c -0.05323,11.57205 -0.05716,11.67633 -0.490317,13.03263 -0.91521,2.86565 -2.803924,5.22977 -5.148877,6.44487 l -1.004124,0.52031 -24.758292,0.0364 c -13.61705,0.02 -25.130362,-0.0573 -25.585127,-0.17189 z m 50.249288,-4.78176 c 1.12636,-0.61432 2.325568,-2.13614 2.860272,-3.62972 l 0.434557,-1.21387 0.05407,-14.22464 c 0.05068,-13.33211 0.07464,-14.22463 0.38173,-14.22463 0.425213,0 1.008885,0.51251 2.345064,2.0592 1.687478,1.95333 2.985374,2.20234 4.595997,0.8818 1.452557,-1.19095 2.236734,-3.59319 1.764083,-5.40408 -0.548558,-2.10175 -2.14171,-3.72672 -3.653746,-3.72672 -0.935442,0 -1.857822,0.62841 -3.283691,2.23718 -0.734189,0.82836 -1.352245,1.33386 -1.630861,1.33386 h -0.44864 l -0.06201,-5.65414 c -0.05818,-5.30561 -0.08869,-5.72752 -0.494914,-6.84449 -0.515177,-1.41654 -1.540756,-2.82069 -2.579506,-3.53169 l -0.753104,-0.51549 -24.475662,-0.063 -24.475664,-0.063 -1.166322,0.72603 c -1.226428,0.76345 -2.080082,1.88785 -2.646396,3.48573 -0.2714,0.76577 -0.334299,1.86803 -0.388369,6.80597 -0.04875,4.45256 -0.120977,5.89221 -0.295587,5.89221 -0.35985,0 -1.8440932,-1.28141 -2.4699634,-2.13243 -0.7518714,-1.02234 -1.8011365,-1.67786 -2.6754321,-1.67145 -2.0926209,0.0153 -3.9748134,2.6363 -3.7756222,5.25757 0.1692272,2.22696 1.3228874,3.96982 2.99871,4.53023 1.2443081,0.41609 2.1465423,0.0176 3.4956164,-1.54403 1.3372433,-1.54791 1.9198553,-2.0592 2.3464393,-2.0592 0.308964,0 0.332242,0.87472 0.381729,14.34367 l 0.0527,14.34367 0.529726,1.36403 c 0.54584,1.40553 1.406523,2.4826 2.569522,3.21553 0.622305,0.39218 2.200645,0.42829 23.918355,0.54716 12.788643,0.07 23.802788,0.0853 24.475875,0.0341 0.673087,-0.0512 1.605053,-0.30113 2.071036,-0.55528 z m -19.353681,-2.8147 c 6.666429,-1.77636 11.556364,-6.00622 12.862764,-11.12643 l 0.316696,-1.24125 1.689659,-0.0681 1.689659,-0.0681 -2.589304,-2.64569 -2.589305,-2.64569 -2.548989,2.64569 -2.548991,2.64569 1.546436,0.0691 c 1.509322,0.0675 1.546428,0.0834 1.546428,0.66419 0,1.54668 -1.849764,4.4389 -3.840766,6.00528 -1.64944,1.29766 -3.242968,2.13413 -5.439105,2.85509 -1.78361,0.58554 -2.208273,0.63118 -5.876343,0.63145 -3.465936,0 -4.159158,-0.0652 -5.618138,-0.53022 -4.565559,-1.45527 -7.909602,-4.20559 -9.182691,-7.5523 -0.29885,-0.78563 -0.543433,-1.55817 -0.543513,-1.71674 -7.8e-5,-0.19814 0.508039,-0.30983 1.62471,-0.35711 l 1.624858,-0.0688 -2.472866,-2.55924 c -1.360075,-1.40759 -2.554336,-2.55924 -2.653908,-2.55924 -0.09957,0 -1.295026,1.15165 -2.656562,2.55924 l -2.475516,2.55924 1.68815,0.068 1.68815,0.068 0.237048,1.00333 c 1.307501,5.53412 7.02433,10.27678 13.948516,11.57164 0.771538,0.14428 1.614606,0.30937 1.873485,0.36687 1.222853,0.27158 6.942603,-0.10573 8.699438,-0.57387 z M 29.121901,52.654371 c -4.611033,-0.8908 -8.001729,-6.00015 -8.001729,-12.0576 0,-3.30439 0.779653,-6.06174 2.359834,-8.34585 2.821712,-4.07872 7.884943,-5.28862 11.754913,-2.80891 2.056429,1.31766 4.124207,4.48524 4.784443,7.32917 l 0.233796,1.00706 0.350317,-1.39523 c 0.733649,-2.92193 2.587652,-5.60446 4.832835,-6.99256 1.594988,-0.98611 3.205328,-1.35702 5.114965,-1.17813 2.585515,0.24221 4.428344,1.34166 6.211357,3.70577 3.205626,4.25036 3.556338,11.19913 0.803845,15.92696 -1.906672,3.27502 -4.528124,4.89637 -7.922497,4.90004 -4.263423,0.005 -7.917946,-3.43113 -9.138242,-8.59117 l -0.237543,-1.00445 -0.395558,1.48609 c -1.123749,4.22188 -4.109413,7.39038 -7.550044,8.01238 -1.474499,0.26656 -1.850239,0.26732 -3.200692,0.006 z m 4.141429,-5.10447 c 2.290478,-1.417 3.880599,-4.88594 3.589607,-7.83092 -0.261813,-2.64968 -1.687153,-5.17108 -3.593875,-6.3575 -1.315319,-0.81843 -3.750547,-0.83066 -4.956051,-0.0249 -1.193616,0.79781 -2.439845,2.3452 -2.994304,3.71789 -0.69209,1.71343 -0.795581,4.27694 -0.246885,6.11534 1.265286,4.23933 5.11001,6.29264 8.201508,4.38009 z m -5.741774,-7.00839 c 0,-0.8426 0.0824,-1.20486 0.297811,-1.30938 0.38792,-0.18824 5.41784,-0.18824 5.805759,0 0.215418,0.10452 0.297813,0.46678 0.297813,1.30938 v 1.16487 h -3.200692 -3.200691 z m 24.563525,7.14475 c 0.977513,-0.54674 2.253741,-1.96752 2.862265,-3.18642 0.640554,-1.28306 1.066301,-3.57076 0.913625,-4.90923 -0.318516,-2.79226 -1.998331,-5.50345 -4.002575,-6.46007 -3.497572,-1.66937 -7.529431,1.40451 -8.128596,6.19723 -0.597485,4.77931 2.670695,9.29921 6.449472,8.91965 0.605072,-0.0608 1.462685,-0.3133 1.905809,-0.56116 z m -3.362336,-3.02349 c -0.06285,-0.20711 -0.114283,-0.95703 -0.114283,-1.66648 v -1.28991 h -1.220208 c -1.161836,0 -1.226171,-0.0301 -1.344973,-0.6286 -0.06862,-0.34574 -0.04735,-0.90818 0.04726,-1.24987 0.157273,-0.56793 0.272735,-0.62734 1.344981,-0.69213 l 1.172936,-0.0709 v -1.3879 c 0,-1.66648 0.225484,-1.97978 1.351092,-1.87738 l 0.814082,0.0741 0.05547,1.59634 0.05548,1.59633 1.262453,0.0702 1.262454,0.0702 v 1.19035 1.19034 l -1.270863,0.0704 -1.270863,0.0704 v 1.65562 1.6556 h -1.015372 c -0.75221,0 -1.044994,-0.0976 -1.129657,-0.37658 z"
     id="path4561"
     inkscape:connector-curvature="0"
     sodipodi:nodetypes="ccsccccssccccsscsccssccsccscccsscsccccccccccccccccccsssccssscscscccccssccsccsscscsscscccccccccsscccccccsssccccccscsssccscscccscssccsscsccssccscccsccccssccscsccccsccccccccccccsc" />
</svg>
