<?xml version="1.0" encoding="UTF-8" standalone="no"?>
<!-- Generator: Adobe Illustrator 16.0.0, SVG Export Plug-In . SVG Version: 6.00 Build 0)  -->

<svg
   xmlns:dc="http://purl.org/dc/elements/1.1/"
   xmlns:cc="http://creativecommons.org/ns#"
   xmlns:rdf="http://www.w3.org/1999/02/22-rdf-syntax-ns#"
   xmlns:svg="http://www.w3.org/2000/svg"
   xmlns="http://www.w3.org/2000/svg"
   xmlns:sodipodi="http://sodipodi.sourceforge.net/DTD/sodipodi-0.dtd"
   xmlns:inkscape="http://www.inkscape.org/namespaces/inkscape"
   version="1.1"
   id="Capa_1"
   x="0px"
   y="0px"
   width="32"
   height="32"
   viewBox="0 0 32.000001 32.000001"
   xml:space="preserve"
   sodipodi:docname="binary_not.svg"
   inkscape:version="0.92.1 r15371"><metadata
     id="metadata47"><rdf:RDF><cc:Work
         rdf:about=""><dc:format>image/svg+xml</dc:format><dc:type
           rdf:resource="http://purl.org/dc/dcmitype/StillImage" /><dc:title></dc:title></cc:Work></rdf:RDF></metadata><defs
     id="defs45" /><sodipodi:namedview
     pagecolor="#ffffff"
     bordercolor="#666666"
     borderopacity="1"
     objecttolerance="10"
     gridtolerance="10"
     guidetolerance="10"
     inkscape:pageopacity="0"
     inkscape:pageshadow="2"
     inkscape:window-width="1366"
     inkscape:window-height="745"
     id="namedview43"
     showgrid="false"
     inkscape:zoom="4.0416497"
     inkscape:cx="19.085482"
     inkscape:cy="-6.7849084"
     inkscape:window-x="-8"
     inkscape:window-y="-8"
     inkscape:window-maximized="1"
     inkscape:current-layer="Capa_1" /><g
     id="g10"
     transform="translate(1.402,1.4015)"><g
       id="g8"><path
         d="m 26.169,7.688 h -7.764 c -0.401,0 -0.782,0.083 -1.134,0.226 C 16.725,6.68 15.49,5.811 14.06,5.811 H 3.515 C 1.582,5.811 0,7.393 0,9.326 v 10.545 c 0,1.933 1.582,3.515 3.515,3.515 H 14.06 c 1.43,0 2.665,-0.868 3.211,-2.103 0.351,0.143 0.732,0.225 1.134,0.225 h 7.764 c 1.669,0 3.027,-1.357 3.027,-3.027 v -7.764 c 0,-1.671 -1.358,-3.029 -3.027,-3.029 z M 8.754,20.291 c -2.848,0 -4.102,-2.559 -4.119,-5.676 0,-3.188 1.356,-5.714 4.203,-5.714 2.948,0 4.102,2.628 4.102,5.646 0,3.406 -1.373,5.744 -4.186,5.744 z m 19.563,-1.812 c 0,1.185 -0.964,2.149 -2.148,2.149 h -7.764 c -0.318,0 -0.615,-0.079 -0.888,-0.205 0.029,-0.182 0.058,-0.363 0.058,-0.555 V 9.326 c 0,-0.19 -0.026,-0.372 -0.058,-0.554 0.272,-0.126 0.569,-0.205 0.888,-0.205 h 7.764 c 1.185,0 2.148,0.965 2.148,2.149 z"
         id="path2"
         inkscape:connector-curvature="0" /><polygon
         points="24.146,18.652 24.146,10.54 22.575,10.54 20.428,11.539 20.74,12.962 22.287,12.228 22.312,12.228 22.312,18.652 "
         id="polygon4" /><path
         d="m 8.804,10.852 c -0.948,0 -1.593,1.203 -1.576,3.764 -0.017,2.524 0.593,3.728 1.593,3.728 1,0 1.542,-1.255 1.542,-3.763 0.001,-2.441 -0.524,-3.729 -1.559,-3.729 z"
         id="path6"
         inkscape:connector-curvature="0" /></g></g><g
     id="g12"
     transform="translate(0,2.8040009)" /><g
     id="g14"
     transform="translate(0,2.8040009)" /><g
     id="g16"
     transform="translate(0,2.8040009)" /><g
     id="g18"
     transform="translate(0,2.8040009)" /><g
     id="g20"
     transform="translate(0,2.8040009)" /><g
     id="g22"
     transform="translate(0,2.8040009)" /><g
     id="g24"
     transform="translate(0,2.8040009)" /><g
     id="g26"
     transform="translate(0,2.8040009)" /><g
     id="g28"
     transform="translate(0,2.8040009)" /><g
     id="g30"
     transform="translate(0,2.8040009)" /><g
     id="g32"
     transform="translate(0,2.8040009)" /><g
     id="g34"
     transform="translate(0,2.8040009)" /><g
     id="g36"
     transform="translate(0,2.8040009)" /><g
     id="g38"
     transform="translate(0,2.8040009)" /><g
     id="g40"
     transform="translate(0,2.8040009)" /><path
     inkscape:connector-curvature="0"
     style="fill:#e22437;stroke-width:0.04497274"
     d="M 25.994904,10.601729 C 25.449694,7.0241522 23.629568,4.6930256 20.530177,4.6930256 H 13.169691 V 0.67033916 c 0,-0.30223802 -0.280235,-0.47489072 -0.475719,-0.29374302 L 6.1189025,6.4652998 c -0.1559431,0.1444269 -0.1590631,0.4330209 -0.006,0.582189 7.0205995,6.8255432 6.5539395,6.4151182 6.7015425,6.4151182 0.162863,0 0.297316,-0.163009 0.297316,-0.367199 V 8.8818819 h 7.417965 c 1.793074,0 3.626352,0.615503 4.977549,2.0649061 0.212685,0.227931 0.5393,-0.0049 0.487171,-0.345059 z"
     id="path6-7" /><path
     inkscape:connector-curvature="0"
     style="fill:#e22437;stroke-width:0.04497282"
     d="m 6.0050766,21.50715 c 0.545211,3.577584 2.3653401,5.908714 5.4647394,5.908714 h 7.3605 v 4.022695 c 0,0.302239 0.280236,0.474891 0.475719,0.293743 l 6.575082,-6.088714 c 0.155944,-0.144429 0.159063,-0.433022 0.006,-0.582191 -7.020613,-6.825556 -6.553953,-6.415131 -6.701555,-6.415131 -0.162864,0 -0.297317,0.16301 -0.297317,0.3672 v 4.213535 h -7.417979 c -1.7930793,0 -3.6263603,-0.615503 -4.9775604,-2.064911 -0.2126847,-0.227931 -0.539301,0.005 -0.4871713,0.34506 z"
     id="path6-7-4" /></svg>