<?xml version="1.0" encoding="iso-8859-1"?>
<!-- Generator: Adobe Illustrator 16.0.0, SVG Export Plug-In . SVG Version: 6.00 Build 0)  -->
<!DOCTYPE svg PUBLIC "-//W3C//DTD SVG 1.1//EN" "http://www.w3.org/Graphics/SVG/1.1/DTD/svg11.dtd">
<svg version="1.1" id="Capa_1" xmlns="http://www.w3.org/2000/svg" xmlns:xlink="http://www.w3.org/1999/xlink" x="0px" y="0px"
	 width="99.248px" height="99.248px" viewBox="0 0 99.248 99.248" style="enable-background:new 0 0 99.248 99.248;"
	 xml:space="preserve">
<g>
	<g>
		<path d="M24.683,9.354C24.683,4.184,20.5,0,15.33,0C10.16,0,5.977,4.184,5.977,9.354V37.15h18.706V9.354z"/>
		<path d="M1.3,55.856h4.676v34.032c0,5.17,4.184,9.353,9.353,9.353c5.17,0,9.353-4.183,9.353-9.353V55.856h4.676V43.386H1.3V55.856
			z"/>
		<path d="M58.977,9.354c0-5.17-4.184-9.354-9.354-9.354c-5.169,0-9.353,4.184-9.353,9.354v50.662h18.706V9.354z"/>
		<path d="M35.594,78.721h4.677v11.174c0,5.17,4.183,9.354,9.353,9.354c5.17,0,9.354-4.184,9.354-9.354V78.721h4.676V66.25H35.594
			V78.721z"/>
		<path d="M93.271,9.354c0-5.17-4.184-9.354-9.354-9.354c-5.169,0-9.353,4.184-9.353,9.354v10.649h18.706V9.354z"/>
		<path d="M97.948,26.238h-28.06v12.471h4.677v51.18c0,5.17,4.184,9.353,9.353,9.353c5.17,0,9.354-4.183,9.354-9.353v-51.18h4.677
			V26.238z"/>
	</g>
</g>
<g>
</g>
<g>
</g>
<g>
</g>
<g>
</g>
<g>
</g>
<g>
</g>
<g>
</g>
<g>
</g>
<g>
</g>
<g>
</g>
<g>
</g>
<g>
</g>
<g>
</g>
<g>
</g>
<g>
</g>
</svg>
