<?xml version="1.0" encoding="UTF-8" standalone="no"?>
<!-- Created with Inkscape (http://www.inkscape.org/) -->

<svg
   xmlns:dc="http://purl.org/dc/elements/1.1/"
   xmlns:cc="http://creativecommons.org/ns#"
   xmlns:rdf="http://www.w3.org/1999/02/22-rdf-syntax-ns#"
   xmlns:svg="http://www.w3.org/2000/svg"
   xmlns="http://www.w3.org/2000/svg"
   xmlns:sodipodi="http://sodipodi.sourceforge.net/DTD/sodipodi-0.dtd"
   xmlns:inkscape="http://www.inkscape.org/namespaces/inkscape"
   width="30mm"
   height="30mm"
   viewBox="0 0 30 30"
   version="1.1"
   id="svg8"
   inkscape:version="0.92.1 r15371"
   sodipodi:docname="digital_signal_din.svg">
  <defs
     id="defs2" />
  <sodipodi:namedview
     id="base"
     pagecolor="#ffffff"
     bordercolor="#666666"
     borderopacity="1.0"
     inkscape:pageopacity="0.0"
     inkscape:pageshadow="2"
     inkscape:zoom="1.979899"
     inkscape:cx="4.4346607"
     inkscape:cy="68.05846"
     inkscape:document-units="mm"
     inkscape:current-layer="layer1"
     showgrid="false"
     inkscape:window-width="1366"
     inkscape:window-height="745"
     inkscape:window-x="-8"
     inkscape:window-y="-8"
     inkscape:window-maximized="1" />
  <metadata
     id="metadata5">
    <rdf:RDF>
      <cc:Work
         rdf:about="">
        <dc:format>image/svg+xml</dc:format>
        <dc:type
           rdf:resource="http://purl.org/dc/dcmitype/StillImage" />
        <dc:title></dc:title>
      </cc:Work>
    </rdf:RDF>
  </metadata>
  <g
     inkscape:label="Layer 1"
     inkscape:groupmode="layer"
     id="layer1"
     transform="translate(0,-267)">
    <path
       style="fill:none;stroke:#000000;stroke-width:2.5;stroke-linecap:butt;stroke-linejoin:miter;stroke-miterlimit:4;stroke-dasharray:none;stroke-opacity:1"
       d="m 0,286.30355 h 10.809978 v -17.89582 h 11.182739 l -0.251306,17.86946 5.469918,0.0264 v 0"
       id="path4498"
       inkscape:connector-curvature="0"
       sodipodi:nodetypes="ccccccc" />
    <g
       aria-label="DIN"
       transform="matrix(0.32961021,0,0,0.29963082,0.5485968,280.14412)"
       style="font-style:normal;font-variant:normal;font-weight:bold;font-stretch:normal;font-size:42.66629791px;line-height:1.25;font-family:Arial;-inkscape-font-specification:'Arial, Bold';font-variant-ligatures:normal;font-variant-caps:normal;font-variant-numeric:normal;font-feature-settings:normal;text-align:start;letter-spacing:0px;word-spacing:0px;writing-mode:lr-tb;text-anchor:start;fill:#000080;fill-opacity:1;stroke:none"
       id="flowRoot4483">
      <path
         d="m 11.655572,25.562329 h 11.270736 q 3.812467,0 5.81245,0.583328 2.687477,0.79166 4.604127,2.812476 1.91665,2.020816 2.916641,4.95829 0.999992,2.916642 0.999992,7.208271 0,3.770801 -0.937492,6.499944 -1.145824,3.333305 -3.270805,5.395787 -1.604153,1.562486 -4.333296,2.437479 -2.041649,0.645828 -5.458286,0.645828 H 11.655572 Z m 6.166614,5.166622 v 20.228992 h 4.604127 q 2.583311,0 3.729134,-0.291664 1.499987,-0.374997 2.479145,-1.270823 0.999992,-0.895825 1.624986,-2.937474 0.624995,-2.062483 0.624995,-5.604119 0,-3.541636 -0.624995,-5.437453 -0.624994,-1.895817 -1.749985,-2.958307 -1.12499,-1.062491 -2.854142,-1.437488 -1.291655,-0.291664 -5.062456,-0.291664 z"
         id="path4501"
         inkscape:connector-curvature="0"
         style="fill:#000080" />
      <path
         d="M 42.321974,56.103732 V 25.562329 h 6.166613 v 30.541403 z"
         id="path4503"
         inkscape:connector-curvature="0"
         style="fill:#000080" />
      <path
         d="M 54.405203,56.103732 V 25.562329 h 5.999948 L 72.905043,45.957986 V 25.562329 H 78.63416 V 56.103732 H 72.446714 L 60.13432,36.187237 v 19.916495 z"
         id="path4505"
         inkscape:connector-curvature="0"
         style="fill:#000080" />
    </g>
  </g>
</svg>
