<?xml version="1.0" encoding="UTF-8" standalone="no"?>
<!-- Created with Inkscape (http://www.inkscape.org/) -->

<svg
   xmlns:dc="http://purl.org/dc/elements/1.1/"
   xmlns:cc="http://creativecommons.org/ns#"
   xmlns:rdf="http://www.w3.org/1999/02/22-rdf-syntax-ns#"
   xmlns:svg="http://www.w3.org/2000/svg"
   xmlns="http://www.w3.org/2000/svg"
   xmlns:sodipodi="http://sodipodi.sourceforge.net/DTD/sodipodi-0.dtd"
   xmlns:inkscape="http://www.inkscape.org/namespaces/inkscape"
   width="30mm"
   height="30mm"
   viewBox="0 0 30 30"
   version="1.1"
   id="svg8"
   inkscape:version="0.92.1 r15371"
   sodipodi:docname="digital_signal_cs.svg">
  <defs
     id="defs2" />
  <sodipodi:namedview
     id="base"
     pagecolor="#ffffff"
     bordercolor="#666666"
     borderopacity="1.0"
     inkscape:pageopacity="0.0"
     inkscape:pageshadow="2"
     inkscape:zoom="1.979899"
     inkscape:cx="-62.101466"
     inkscape:cy="26.033491"
     inkscape:document-units="mm"
     inkscape:current-layer="layer1"
     showgrid="false"
     inkscape:window-width="1366"
     inkscape:window-height="745"
     inkscape:window-x="-8"
     inkscape:window-y="-8"
     inkscape:window-maximized="1" />
  <metadata
     id="metadata5">
    <rdf:RDF>
      <cc:Work
         rdf:about="">
        <dc:format>image/svg+xml</dc:format>
        <dc:type
           rdf:resource="http://purl.org/dc/dcmitype/StillImage" />
        <dc:title></dc:title>
      </cc:Work>
    </rdf:RDF>
  </metadata>
  <g
     inkscape:label="Layer 1"
     inkscape:groupmode="layer"
     id="layer1"
     transform="translate(0,-267)">
    <g
       aria-label="CS"
       transform="matrix(0.2766125,0,0,0.29025094,5.3442182,280.7459)"
       style="font-style:normal;font-variant:normal;font-weight:bold;font-stretch:normal;font-size:42.66629791px;line-height:1.25;font-family:Arial;-inkscape-font-specification:'Arial, Bold';font-variant-ligatures:normal;font-variant-caps:normal;font-variant-numeric:normal;font-feature-settings:normal;text-align:start;letter-spacing:0px;word-spacing:0px;writing-mode:lr-tb;text-anchor:start;fill:#000080;fill-opacity:1;stroke:none"
       id="flowRoot4483">
      <path
         d="m 31.217903,44.874662 5.979115,1.895817 q -1.374988,4.999957 -4.583293,7.437436 -3.187473,2.416645 -8.104097,2.416645 -6.083281,0 -9.999914,-4.145797 -3.916633,-4.166631 -3.916633,-11.374902 0,-7.624934 3.937466,-11.833231 3.937466,-4.22913 10.354078,-4.22913 5.604118,0 9.104088,3.312471 2.083315,1.958317 3.124973,5.624952 l -6.104114,1.45832 q -0.541662,-2.374979 -2.270814,-3.749967 -1.708319,-1.374988 -4.166631,-1.374988 -3.395804,0 -5.520785,2.437479 -2.104149,2.437479 -2.104149,7.895765 0,5.791616 2.083316,8.249929 2.083315,2.458312 5.416619,2.458312 2.458313,0 4.229131,-1.562487 1.770818,-1.562486 2.541644,-4.916624 z"
         id="path5061"
         inkscape:connector-curvature="0"
         style="fill:#000080" />
      <path
         d="m 40.946986,46.166317 5.999948,-0.583328 q 0.541662,3.020807 2.187481,4.437462 1.666652,1.416654 4.479128,1.416654 2.979141,0 4.479128,-1.249989 1.52082,-1.270822 1.52082,-2.958308 0,-1.083324 -0.645828,-1.833317 -0.624994,-0.770827 -2.208314,-1.333322 -1.083324,-0.374997 -4.937457,-1.333322 -4.958291,-1.229156 -6.958273,-3.020807 -2.812476,-2.520812 -2.812476,-6.14578 0,-2.333313 1.312489,-4.354129 1.333321,-2.041649 3.812467,-3.10414 2.499978,-1.062491 6.020781,-1.062491 5.74995,0 8.645759,2.520812 2.916641,2.520811 3.062473,6.729108 l -6.166613,0.270831 q -0.39583,-2.354146 -1.708319,-3.374971 -1.291655,-1.041657 -3.895799,-1.041657 -2.687477,0 -4.208297,1.104157 -0.979159,0.708327 -0.979159,1.895817 0,1.083324 0.916659,1.85415 1.166657,0.979158 5.666618,2.041649 4.499961,1.062491 6.645776,2.208315 2.166648,1.12499 3.374971,3.104139 1.229156,1.958317 1.229156,4.854125 0,2.624977 -1.458321,4.916624 -1.458321,2.291647 -4.124964,3.416637 -2.666644,1.104158 -6.645776,1.104158 -5.791617,0 -8.895757,-2.666644 -3.10414,-2.687477 -3.708301,-7.812433 z"
         id="path5063"
         inkscape:connector-curvature="0"
         style="fill:#000080" />
    </g>
    <path
       style="fill:none;stroke:#000000;stroke-width:2.5;stroke-linecap:butt;stroke-linejoin:miter;stroke-miterlimit:4;stroke-dasharray:none;stroke-opacity:1"
       d="M 0.93645502,286.30355 H 11.746433 v -17.89582 h 11.182739 l -0.251306,17.86946 5.469918,0.0264 v 0"
       id="path4498"
       inkscape:connector-curvature="0"
       sodipodi:nodetypes="ccccccc" />
  </g>
</svg>
