<?xml version="1.0" encoding="UTF-8" standalone="no"?>
<!-- Generator: Adobe Illustrator 19.0.0, SVG Export Plug-In . SVG Version: 6.00 Build 0)  -->

<svg
   xmlns:dc="http://purl.org/dc/elements/1.1/"
   xmlns:cc="http://creativecommons.org/ns#"
   xmlns:rdf="http://www.w3.org/1999/02/22-rdf-syntax-ns#"
   xmlns:svg="http://www.w3.org/2000/svg"
   xmlns="http://www.w3.org/2000/svg"
   xmlns:sodipodi="http://sodipodi.sourceforge.net/DTD/sodipodi-0.dtd"
   xmlns:inkscape="http://www.inkscape.org/namespaces/inkscape"
   version="1.1"
   id="Layer_1"
   x="0px"
   y="0px"
   viewBox="0 0 300 300"
   style="enable-background:new 0 0 300 300;"
   xml:space="preserve"
   sodipodi:docname="folder_loop.svg"
   inkscape:version="0.92.4 (5da689c313, 2019-01-14)"><metadata
   id="metadata47"><rdf:RDF><cc:Work
       rdf:about=""><dc:format>image/svg+xml</dc:format><dc:type
         rdf:resource="http://purl.org/dc/dcmitype/StillImage" /><dc:title></dc:title></cc:Work></rdf:RDF></metadata><defs
   id="defs45" /><sodipodi:namedview
   pagecolor="#ffffff"
   bordercolor="#666666"
   borderopacity="1"
   objecttolerance="10"
   gridtolerance="10"
   guidetolerance="10"
   inkscape:pageopacity="0"
   inkscape:pageshadow="2"
   inkscape:window-width="1920"
   inkscape:window-height="1001"
   id="namedview43"
   showgrid="false"
   inkscape:zoom="0.78666667"
   inkscape:cx="150"
   inkscape:cy="150"
   inkscape:window-x="-9"
   inkscape:window-y="-9"
   inkscape:window-maximized="1"
   inkscape:current-layer="Layer_1" />
<g
   id="g10">
	<g
   id="g8">
		<g
   id="g6">
			<path
   d="M207.597,115.365h-71.22l-18.759-17.029H85.649c-2.446,0-4.435,1.989-4.435,4.432v108.899     c0,2.443,1.989,4.432,4.435,4.432h3.369l17.688-91.03h105.32v-5.27C212.027,117.357,210.038,115.365,207.597,115.365z"
   id="path2" />
			<path
   d="M149.996,0C67.157,0,0.001,67.161,0.001,149.997S67.157,300,149.996,300s150.003-67.163,150.003-150.003     S232.835,0,149.996,0z M227.241,212.721c-0.542,10.333-8.948,18.601-19.343,18.912c-0.101,0.005-0.197,0.031-0.301,0.031     l-9.231,0.005l-112.72-0.005c-11.023,0-19.991-8.969-19.991-19.994V102.768c0-11.025,8.969-19.994,19.997-19.994h37.975     l18.759,17.029h65.211c11.023,0,19.991,8.969,19.991,19.997v5.27l17.904,0.003L227.241,212.721z"
   id="path4" />
		</g>
	</g>
</g>
<g
   id="g12">
</g>
<g
   id="g14">
</g>
<g
   id="g16">
</g>
<g
   id="g18">
</g>
<g
   id="g20">
</g>
<g
   id="g22">
</g>
<g
   id="g24">
</g>
<g
   id="g26">
</g>
<g
   id="g28">
</g>
<g
   id="g30">
</g>
<g
   id="g32">
</g>
<g
   id="g34">
</g>
<g
   id="g36">
</g>
<g
   id="g38">
</g>
<g
   id="g40">
</g>
<g
   transform="matrix(0.21016158,0,0,0.210158,115.1018,130.35694)"
   id="g4"><path
     inkscape:connector-curvature="0"
     d="m 376.497,64.677 c -86.055,-86.16 -225.66,-86.246 -311.821,-0.191 -86.159,86.055 -86.246,225.659 -0.19,311.822 86.053,86.157 225.661,86.243 311.821,0.188 86.16,-86.052 86.246,-225.659 0.19,-311.819 z M 220.49,367.665 c -81.199,0 -147.26,-66.062 -147.26,-147.259 0,-25.983 6.87,-51.536 19.87,-73.894 L 81.696,133.496 c -1.649,-1.881 -2.167,-4.499 -1.364,-6.865 0.805,-2.367 2.813,-4.127 5.266,-4.613 l 77.536,-16.767 c 2.451,-0.486 4.978,0.372 6.625,2.253 1.647,1.879 2.169,4.494 1.362,6.863 l -22.781,79.086 c -0.805,2.367 -2.811,4.125 -5.264,4.613 -2.452,0.486 -4.979,-0.371 -6.626,-2.253 L 125.655,183.66 c -4.537,11.709 -6.838,24.07 -6.838,36.744 0,56.062 45.61,101.672 101.673,101.673 56.063,0 101.673,-45.609 101.673,-101.674 0,-53.487 -41.782,-98.056 -95.121,-101.464 -3.684,-0.234 -6.552,-3.291 -6.552,-6.984 V 80.313 c 0,-1.915 0.787,-3.748 2.174,-5.069 1.389,-1.32 3.258,-2.016 5.171,-1.92 37.723,1.861 72.93,18.004 99.137,45.45 26.298,27.542 40.779,63.634 40.779,101.63 0,81.199 -66.063,147.261 -147.261,147.261 z"
     id="path2-5" /></g></svg>