<?xml version="1.0" encoding="UTF-8" standalone="no"?>
<!-- Generator: Adobe Illustrator 18.0.0, SVG Export Plug-In . SVG Version: 6.00 Build 0)  -->

<svg
   xmlns:dc="http://purl.org/dc/elements/1.1/"
   xmlns:cc="http://creativecommons.org/ns#"
   xmlns:rdf="http://www.w3.org/1999/02/22-rdf-syntax-ns#"
   xmlns:svg="http://www.w3.org/2000/svg"
   xmlns="http://www.w3.org/2000/svg"
   xmlns:sodipodi="http://sodipodi.sourceforge.net/DTD/sodipodi-0.dtd"
   xmlns:inkscape="http://www.inkscape.org/namespaces/inkscape"
   version="1.1"
   id="Capa_1"
   x="0px"
   y="0px"
   viewBox="0 0 512 512"
   xml:space="preserve"
   sodipodi:docname="play-button.svg"
   width="512"
   height="512"
   inkscape:version="0.92.4 (5da689c313, 2019-01-14)"><metadata
     id="metadata39"><rdf:RDF><cc:Work
         rdf:about=""><dc:format>image/svg+xml</dc:format><dc:type
           rdf:resource="http://purl.org/dc/dcmitype/StillImage" /><dc:title></dc:title></cc:Work></rdf:RDF></metadata><defs
     id="defs37" /><sodipodi:namedview
     pagecolor="#ffffff"
     bordercolor="#666666"
     borderopacity="1"
     objecttolerance="10"
     gridtolerance="10"
     guidetolerance="10"
     inkscape:pageopacity="0"
     inkscape:pageshadow="2"
     inkscape:window-width="1920"
     inkscape:window-height="1001"
     id="namedview35"
     showgrid="false"
     inkscape:zoom="0.32593203"
     inkscape:cx="-1266.3495"
     inkscape:cy="109.23095"
     inkscape:window-x="-9"
     inkscape:window-y="-9"
     inkscape:window-maximized="1"
     inkscape:current-layer="Capa_1" /><path
     d="M 256,0 C 114.617,0 0,114.615 0,256 0,397.385 114.617,512 256,512 397.383,512 512,397.385 512,256 512,114.615 397.383,0 256,0 Z m 112.04492,133.76953 c 22.86839,0 40.89673,5.33102 54.08594,15.99219 13.29558,10.55964 19.94336,24.52033 19.94336,41.88281 0,9.95043 -1.86122,18.8361 -5.58399,26.6543 -3.72276,7.71666 -8.61495,14.56998 -14.67773,20.56055 -5.95642,5.78749 -12.81741,11.22012 -20.58203,16.29687 -7.76462,5.07675 -16.00662,10.00129 -24.72852,14.77344 v 34.26758 h -28.56054 v -46.45313 c 6.9137,-3.75679 14.36054,-7.8684 22.33789,-12.33594 8.08371,-4.46754 14.6777,-8.98561 19.7832,-13.55468 6.16915,-5.27982 10.95571,-10.71246 14.35938,-16.29688 3.40366,-5.68596 5.10546,-12.89494 5.10546,-21.62695 0,-11.47346 -4.09508,-20.00152 -12.28515,-25.58594 -8.08371,-5.68596 -18.56153,-8.5293 -31.43164,-8.5293 -11.48738,0 -22.38967,1.72555 -32.70703,5.17774 -10.21101,3.45219 -18.29359,6.95604 -24.25,10.50976 h -1.59571 v -31.07031 c 7.44553,-2.74144 16.85922,-5.17831 28.24024,-7.31055 11.48737,-2.23377 22.33587,-3.35156 32.54687,-3.35156 z m -215.62695,26.22852 c 2.80712,0.0743 5.596,0.88864 8.0625,2.43164 l 128,80 C 293.15647,245.35969 296,250.485 296,256 c 0,5.515 -2.84353,10.64131 -7.51953,13.57031 l -128,80 C 157.89047,351.18731 154.945,352 152,352 c -2.668,0 -5.33981,-0.66381 -7.75781,-2.00781 C 139.15619,347.17219 136,336 136,336 V 176 c 0,-5.82 3.15619,-11.17219 8.24219,-13.99219 2.543,-1.418 5.36865,-2.08401 8.17578,-2.00976 z m 194.08789,172.98437 h 32.54883 v 32.13477 h -32.54883 z"
     id="path2"
     inkscape:connector-curvature="0" /><g
     id="g4" /><g
     id="g6" /><g
     id="g8" /><g
     id="g10" /><g
     id="g12" /><g
     id="g14" /><g
     id="g16" /><g
     id="g18" /><g
     id="g20" /><g
     id="g22" /><g
     id="g24" /><g
     id="g26" /><g
     id="g28" /><g
     id="g30" /><g
     id="g32" /></svg>