<?xml version="1.0" encoding="UTF-8" standalone="no"?>
<svg
   xmlns:dc="http://purl.org/dc/elements/1.1/"
   xmlns:cc="http://creativecommons.org/ns#"
   xmlns:rdf="http://www.w3.org/1999/02/22-rdf-syntax-ns#"
   xmlns:svg="http://www.w3.org/2000/svg"
   xmlns="http://www.w3.org/2000/svg"
   xmlns:sodipodi="http://sodipodi.sourceforge.net/DTD/sodipodi-0.dtd"
   xmlns:inkscape="http://www.inkscape.org/namespaces/inkscape"
   version="1.1"
   x="0px"
   y="0px"
   viewBox="0 0 1000 1000"
   enable-background="new 0 0 1000 1000"
   xml:space="preserve"
   id="svg14"
   sodipodi:docname="row.svg"
   inkscape:version="1.0.2-2 (e86c870879, 2021-01-15)"><defs
   id="defs18" /><sodipodi:namedview
   pagecolor="#ffffff"
   bordercolor="#666666"
   borderopacity="1"
   objecttolerance="10"
   gridtolerance="10"
   guidetolerance="10"
   inkscape:pageopacity="0"
   inkscape:pageshadow="2"
   inkscape:window-width="3840"
   inkscape:window-height="2050"
   id="namedview16"
   showgrid="false"
   inkscape:zoom="1.026"
   inkscape:cx="500"
   inkscape:cy="500"
   inkscape:window-x="-12"
   inkscape:window-y="-12"
   inkscape:window-maximized="1"
   inkscape:current-layer="svg14" />
<metadata
   id="metadata2"> Svg Vector Icons : http://www.onlinewebfonts.com/icon <rdf:RDF><cc:Work
     rdf:about=""><dc:format>image/svg+xml</dc:format><dc:type
       rdf:resource="http://purl.org/dc/dcmitype/StillImage" /></cc:Work></rdf:RDF></metadata>
<path
   d="M 53.28,199.89 C 41.98,203.53 28.57,213.3 22.06,222.68 10.38,239.73 10.19,242.6 10.76,323.8 l 0.57,73.54 6.51,12.07 c 7.28,13.41 13.21,19.15 27.77,26.81 l 9.77,5.17 h 445.28 445.28 l 9.77,-5.17 c 14.56,-7.66 20.49,-13.41 27.77,-26.81 l 6.51,-12.07 v -77.56 -77.57 l -4.79,-9.58 c -5.94,-12.26 -17.62,-23.75 -29.69,-29.88 l -9.58,-4.6 -442.41,-0.38 C 147.13,197.6 59.6,197.98 53.28,199.89 Z m 862.22,63.59 c 13.03,9.58 13.22,10.34 13.22,56.11 v 41.75 l -5.17,6.7 c -10.92,14.17 28.15,13.02 -425.17,12.64 L 91.4,380.11 84.31,374.56 c -11.49,-8.81 -12.64,-13.41 -12.64,-54.58 0,-37.73 0.96,-43.67 8.24,-51.71 9.38,-10.15 -15.32,-9.58 423.07,-9.19 l 407.36,0.38 z"
   id="path4"
   style="stroke-width:0.1" /><path
   d="m 53.28,506.32 c -18,5.75 -33.32,21.07 -39.84,40.03 -4.59,13.6 -4.59,145.55 0,159.92 4.79,14.56 15.13,26.81 29.5,34.67 l 12.45,6.89 h 445.28 445.28 l 9.77,-5.17 c 14.56,-7.66 20.49,-13.41 27.77,-26.81 L 990,703.78 v -77.56 -77.56 l -4.79,-9.58 c -5.94,-12.26 -17.62,-23.75 -29.69,-29.88 l -9.58,-4.6 -442.41,-0.38 c -356.4,-0.19 -443.93,0.19 -450.25,2.1 z m 862.22,63.59 c 13.03,9.58 13.22,10.34 13.22,56.11 v 41.75 l -5.17,6.7 c -10.92,14.18 28.15,13.03 -425.37,12.65 L 91.01,686.55 85.84,682.53 C 73.01,673.13 72.63,671.6 72.05,631.38 71.28,589.05 71.86,584.46 78.75,576.22 88.9,564.15 58.45,565.11 502.96,565.49 l 407.36,0.38 z"
   id="path6"
   style="stroke-width:0.1" />
</svg>
