<?xml version="1.0" encoding="iso-8859-1"?>
<!-- Generator: Adobe Illustrator 19.0.0, SVG Export Plug-In . SVG Version: 6.00 Build 0)  -->
<svg xmlns="http://www.w3.org/2000/svg" xmlns:xlink="http://www.w3.org/1999/xlink" version="1.1" id="Layer_1" x="0px" y="0px" viewBox="0 0 512 512" style="enable-background:new 0 0 512 512;" xml:space="preserve" width="512" height="512">
<g>
	<path d="M73.17,122.267c8.802,9.283,18.622,18.441,28.94,27.792c47.021,42.598,66.519,67.006,42.188,97.401   c-30.103,37.646-28.535,67.207-21.899,85.386c10.181,27.935,39.507,48.647,80.464,56.807c39.038,7.797,94.75,3.279,114.448,31.187   c17.983,25.49-0.833,86.446-1.567,91.161h35.786c2.404-3.816,47.873-46.85,40.825-104.989   c-8.077-66.632-79.31-106.505-88.433-114.99c24.457-23.243,155.801-59.856,162.394-184.452   C406.656,148.328,274.621,150,255.684,150C239.349,150,138.834,148.733,73.17,122.267z"/>
	<ellipse cx="255.684" cy="60" rx="210" ry="60"/>
</g>















</svg>
