<svg height="512pt" viewBox="-38 0 512 512.001" width="512pt" xmlns="http://www.w3.org/2000/svg"><path d="m148.910156 176.460938-.398437-136.941407c-.089844-21.78125-17.800781-39.4687498-39.519531-39.4687498h-.070313c-21.75.0390626-39.441406 17.8085938-39.441406 39.6289068v136.820312c0 77.210938 58.859375 140.910156 134.019531 148.46875v-80.390625c-31.1875-6.878906-54.589844-34.796875-54.589844-68.117187zm0 0"/><path d="m328 0h-.386719c-21.792969 0-39.523437 17.78125-39.523437 39.628906v136.871094c0 33.28125-23.398438 61.199219-54.589844 68.078125v80.390625c75.160156-7.558594 134.019531-71.257812 134.019531-148.46875v-136.871094c0-21.847656-17.726562-39.628906-39.519531-39.628906zm0 0"/><path d="m35.628906 72.410156c-7.285156-7.308594-7.59375-19.339844-.675781-26.277344 5.847656-5.867187 5.835937-15.367187-.03125-21.214843-5.867187-5.851563-15.363281-5.835938-21.214844.03125-9.089843 9.117187-13.957031 21.410156-13.6953122 34.613281.2500002 12.902344 5.3554692 24.988281 14.3710932 34.03125 7.039063 7.054688 7.039063 18.542969 0 25.597656-18.683593 18.738282-18.683593 49.230469 0 67.964844 2.929688 2.941406 6.777344 4.410156 10.621094 4.410156 3.832032 0 7.664063-1.457031 10.59375-4.378906 5.867188-5.847656 5.878906-15.34375.03125-21.210938-7.039062-7.058593-7.039062-18.542968 0-25.601562 18.679688-18.738281 18.679688-49.230469 0-67.964844zm0 0"/><path d="m436.992188 59.5625c.257812-13.203125-4.609376-25.496094-13.699219-34.613281-5.847657-5.867188-15.347657-5.882813-21.210938-.03125-5.867187 5.847656-5.882812 15.347656-.03125 21.210937 6.917969 6.941406 6.609375 18.972656-.675781 26.28125-18.683594 18.738282-18.683594 49.226563 0 67.964844 7.035156 7.058594 7.035156 18.542969 0 25.601562-5.851562 5.867188-5.835938 15.363282.03125 21.210938 2.925781 2.921875 6.757812 4.378906 10.589844 4.378906 3.847656 0 7.691406-1.46875 10.621094-4.410156 18.683593-18.734375 18.683593-49.226562 0-67.964844-7.035157-7.058594-7.035157-18.542968 0-25.601562 9.015624-9.042969 14.121093-21.128906 14.375-34.027344zm0 0"/><path d="m203.5 324.972656v96.984375h-77.980469c-29.097656 0-52.769531 23.671875-52.769531 52.769531v.167969c0 20.460938 16.644531 37.105469 37.105469 37.105469h217.289062c20.457031 0 37.105469-16.644531 37.105469-37.105469v-.167969c0-29.097656-23.675781-52.769531-52.773438-52.769531h-77.976562v-96.984375c-4.929688.5-9.941406.75-15 .75s-10.070312-.25-15-.75zm0 0"/></svg>